<?xml version="1.0" encoding="utf-8"?>
<!-- Generator: Adobe Illustrator 17.1.0, SVG Export Plug-In . SVG Version: 6.00 Build 0)  -->
<!DOCTYPE svg PUBLIC "-//W3C//DTD SVG 1.1//EN" "http://www.w3.org/Graphics/SVG/1.1/DTD/svg11.dtd">
<svg version="1.1" id="laptop" xmlns="http://www.w3.org/2000/svg" xmlns:xlink="http://www.w3.org/1999/xlink" x="0px" y="0px"
	 viewBox="0 0 1009.9824 1009.9527" enable-background="new 0 0 1009.9824 1009.9527" xml:space="preserve">
<g id="laptop-label">
	<path fill="#F6AB38" d="M505,0C226.0957,0,0,226.1314,0,505c0,278.8921,226.0957,504.9527,505,504.9527
		c278.8505,0,504.9824-226.0606,504.9824-504.9527C1009.9824,226.1314,783.8505,0,505,0z"/>
</g>
<g id="laptop-laptop">
	<path fill="#FFFFFF" d="M770.4072,737.0308c-0.167-0.9766-0.4286-1.9785-0.834-3.0274l-39.5205-83.414
		c-6.8408-13.1689-9.8682-21.9521-21.9287-21.9521H304.2299c-12.0727,0-15.9223,9.8799-21.9648,21.9521l-40.4019,82.9736
		c-2.6455,3.2178-4.2548,7.1387-4.2548,11.417c0,10.6426,9.6777,19.3555,21.5,19.3555h491.7773c11.8223,0,21.5-8.7129,21.5-19.3555
		C772.3857,742.1441,771.6464,739.4624,770.4072,737.0308z M551.2363,752.1431h-92.478c-2.7769,0-5.0176-2.2412-5.0176-5.0176
		c0-2.7646,2.2407-5.0176,5.0176-5.0176h92.478c2.7646,0,5.0049,2.253,5.0049,5.0176
		C556.2412,749.9019,554.0009,752.1431,551.2363,752.1431z"/>
	<path fill="#FFFFFF" d="M322.3808,613.5132H687.625c32.8935-0.0713,59.542-26.7207,59.6132-59.6133v-218.123
		c-0.0712-32.8936-26.7197-59.542-59.6132-59.6016H322.3808c-32.917,0.0596-59.5659,26.708-59.6255,59.6016v218.123
		C262.8149,586.7925,289.4638,613.4419,322.3808,613.5132z M629.4648,601.4282h-48.0293c-3.3603,0-6.1016-2.7294-6.1016-6.0898
		c0-3.373,2.7413-6.1025,6.1016-6.1025h48.0293c3.3613,0,6.0781,2.7295,6.0781,6.1025
		C635.5429,598.6988,632.8261,601.4282,629.4648,601.4282z M649.7968,601.607c-3.456,0-6.2685-2.8125-6.2685-6.2686
		s2.8125-6.2812,6.2685-6.2812c3.4805,0,6.2696,2.8251,6.2696,6.2812S653.2773,601.607,649.7968,601.607z M297.1748,335.7769
		c0.0234-13.7412,11.4409-25.1709,25.206-25.1944H687.625c13.7295,0.0235,25.1709,11.4532,25.1943,25.1944v218.123
		c-0.0234,13.753-11.4648,25.1699-25.1943,25.1944H322.3808c-13.7651-0.0245-25.1826-11.4414-25.206-25.1944V335.7769z"/>
	<path fill="#FFFFFF" d="M388.0605,523.8062c16.8286,0,30.4863-13.6572,30.4863-30.4976c0-16.852-13.6577-30.5102-30.4863-30.5102
		c-16.8516,0-30.5332,13.6582-30.5332,30.5102C357.5273,510.149,371.2089,523.8062,388.0605,523.8062z"/>
	<path fill="#FFFFFF" d="M388.0605,424.0054c16.8286,0,30.4863-13.646,30.4863-30.4981c0-16.8515-13.6577-30.498-30.4863-30.498
		c-16.8516,0-30.5332,13.6465-30.5332,30.498C357.5273,410.3594,371.2089,424.0054,388.0605,424.0054z"/>
	<rect x="434.8505" y="502.4615" fill="#FFFFFF" width="168.0616" height="12.1923"/>
	<rect x="434.8505" y="471.9517" fill="#FFFFFF" width="227.7706" height="12.2041"/>
	<rect x="434.8505" y="402.6485" fill="#FFFFFF" width="168.0616" height="12.1919"/>
	<rect x="434.8505" y="372.1504" fill="#FFFFFF" width="227.7706" height="12.1919"/>
</g>
</svg>
